<?xml version="1.0" standalone="no"?>
<!DOCTYPE svg PUBLIC "-//W3C//DTD SVG 20010904//EN"
 "http://www.w3.org/TR/2001/REC-SVG-20010904/DTD/svg10.dtd">
<svg version="1.0" xmlns="http://www.w3.org/2000/svg"
 width="200.000000pt" height="200.000000pt" viewBox="0 0 200.000000 200.000000"
 preserveAspectRatio="xMidYMid meet">
<metadata>
Created by potrace 1.14, written by Peter Selinger 2001-2017
</metadata>
<g transform="translate(0.000000,200.000000) scale(0.100000,-0.100000)"
fill="#000000" stroke="none">
<path d="M196 1541 c-3 -5 -15 -7 -26 -4 -16 4 -20 0 -21 -23 -3 -82 -4 -661
-1 -675 2 -9 47 -32 115 -59 99 -39 158 -65 377 -168 30 -14 92 -47 137 -74
45 -26 85 -48 89 -48 8 0 -26 31 -76 69 -19 14 -37 29 -40 32 -19 25 -230 153
-353 214 l-148 74 38 16 c21 9 55 23 75 32 l37 15 113 -78 c62 -43 115 -81
118 -84 3 -3 38 -30 78 -59 39 -30 72 -58 72 -62 0 -5 4 -9 10 -9 5 0 33 -22
62 -49 29 -27 67 -60 83 -72 25 -20 28 -20 15 -4 -7 11 -19 25 -25 30 -6 6
-26 30 -45 55 -19 25 -73 85 -120 134 -47 48 -84 93 -82 98 1 5 -1 7 -6 4 -5
-3 -29 13 -53 36 -82 77 -227 184 -353 263 l-29 18 28 14 c15 9 33 16 39 17 6
2 36 10 67 20 31 9 67 19 80 21 13 3 36 7 50 10 35 8 58 -15 199 -195 41 -52
78 -96 82 -98 5 -2 8 -8 8 -13 0 -6 5 -15 10 -22 34 -39 150 -207 150 -216 0
-6 3 -11 8 -11 4 0 32 -38 62 -85 30 -46 56 -82 58 -80 7 7 -67 154 -131 260
-57 95 -226 354 -237 365 -4 3 -32 43 -65 90 -32 47 -71 101 -87 120 -15 19
-28 40 -28 46 0 9 41 22 130 39 84 16 148 28 167 30 11 2 30 6 41 9 11 4 35 9
53 11 50 6 182 35 188 40 2 3 1 8 -2 12 -4 4 -12 2 -17 -3 -5 -5 -57 -7 -120
-4 -62 3 -113 3 -115 0 -2 -3 -38 -3 -80 0 -42 3 -78 3 -80 -1 -2 -3 -29 -2
-59 1 -31 3 -62 3 -68 -1 -7 -4 -20 -3 -29 2 -11 6 -20 5 -24 -1 -3 -6 -15 -6
-30 0 -15 6 -27 6 -30 -1 -4 -5 -10 -7 -15 -4 -12 7 -189 9 -196 2 -4 -3 -15
-2 -25 3 -10 6 -20 6 -23 1z"/>
<path d="M1119 1476 c-2 -2 -26 -7 -53 -10 -27 -4 -52 -9 -56 -11 -4 -2 -29
-7 -56 -11 -27 -3 -52 -8 -55 -10 -4 -2 -25 -6 -46 -9 -60 -7 -223 -42 -230
-48 -3 -3 28 -52 69 -109 140 -195 308 -455 308 -477 0 -6 5 -11 10 -11 6 0
10 -7 10 -15 0 -8 5 -15 11 -15 6 0 9 -7 5 -15 -3 -8 -1 -15 4 -15 11 0 123
-224 123 -245 0 -14 28 2 88 49 14 12 40 32 59 46 229 172 215 153 181 256
l-18 54 52 102 c53 107 183 314 222 358 13 14 23 28 23 32 0 4 10 16 22 28 12
11 18 20 12 20 -5 0 -43 -39 -84 -88 -41 -48 -84 -98 -97 -112 -12 -14 -47
-56 -78 -95 -31 -38 -70 -88 -88 -109 -31 -37 -50 -62 -161 -207 -27 -35 -52
-68 -56 -72 -4 -4 -28 25 -55 65 -78 118 -134 188 -222 276 -79 79 -82 83 -51
77 38 -7 227 -96 268 -125 16 -11 34 -20 42 -20 15 0 148 128 148 143 0 24
-133 232 -196 305 -17 20 -44 29 -55 18z"/>
</g>
</svg>
